<svg width="386" height="192" xmlns="http://www.w3.org/2000/svg" xmlns:xlink="http://www.w3.org/1999/xlink" xml:space="preserve" overflow="hidden"><defs><clipPath id="clip0"><rect x="870" y="359" width="164" height="150"/></clipPath><clipPath id="clip1"><rect x="870" y="359" width="164" height="150"/></clipPath></defs><g transform="translate(-648 -357)"><path d="M820.308 370.524 951.825 544.239 733.942 545.224Z" stroke="#042433" stroke-width="6.875" stroke-miterlimit="8" fill="#E8E8E8" fill-rule="evenodd"/><path d="M651.5 425.5C651.5 389.602 680.601 360.5 716.5 360.5 752.398 360.5 781.5 389.602 781.5 425.5 781.5 461.399 752.398 490.5 716.5 490.5 680.601 490.5 651.5 461.399 651.5 425.5Z" stroke="#042433" stroke-width="6.875" stroke-miterlimit="8" fill="#C1E5F5" fill-rule="evenodd"/><path d="M661.5 396.5 951.875 544.739" stroke="#FF0000" stroke-width="6.875" stroke-miterlimit="8" stroke-dasharray="27.5 20.625" fill="none" fill-rule="evenodd"/><g clip-path="url(#clip0)"><g clip-path="url(#clip1)"><g><path d="M56.9207 132.779C56.5169 132.779 56.1134 132.646 55.7765 132.375 54.9928 131.743 54.8691 130.595 55.5009 129.811L122.231 47.0044 116.457 33.2611 105.898 24.7526 91.24 22.0321 24.5104 104.839C23.8763 105.625 22.7274 105.741 21.9461 105.114 21.1627 104.483 21.0393 103.333 21.6707 102.55L89.7678 18.048 107.469 21.3336 119.463 31.0007 126.437 47.598 58.3402 132.1C57.9794 132.546 57.4524 132.779 56.9207 132.779Z" fill="#E94D33" transform="matrix(1 0 0 1.00258 870 360.06)"/><path d="M124.334 49.1244C123.931 49.1244 123.527 48.9912 123.19 48.7208 122.407 48.0895 122.283 46.9402 122.915 46.1566L133.852 32.5794 128.078 18.8362 117.521 10.3301 102.863 7.60703 91.9235 21.1844C91.2903 21.9677 90.1432 22.0864 89.3598 21.4597 88.5765 20.8281 88.4528 19.6792 89.084 18.8958L101.391 3.62331 119.093 6.91147 131.083 16.5763 138.059 33.173 125.754 48.4456C125.393 48.8916 124.866 49.1244 124.334 49.1244Z" fill="#E94D33" transform="matrix(1 0 0 1.00258 870 360.06)"/><path d="M34.3673 114.605C33.9636 114.605 33.5602 114.473 33.2229 114.202 32.4396 113.57 32.3161 112.421 32.9475 111.638L100.361 27.9808C100.995 27.1953 102.144 27.0766 102.925 27.7056 103.708 28.337 103.832 29.4861 103.2 30.2697L35.787 113.927C35.4262 114.373 34.8991 114.605 34.3673 114.605Z" fill="#BA3B21" transform="matrix(1 0 0 1.00258 870 360.06)"/><path d="M45.6439 123.691C45.2401 123.691 44.837 123.558 44.4997 123.287 43.7164 122.656 43.5929 121.507 44.2243 120.723L111.638 37.0688C112.274 36.2856 113.421 36.1668 114.202 36.7934 114.985 37.4248 115.109 38.5738 114.477 39.3575L47.0636 123.012C46.7026 123.458 46.1758 123.691 45.6439 123.691Z" fill="#BA3B21" transform="matrix(1 0 0 1.00258 870 360.06)"/><path d="M18.7009 143.766 19.3655 106.021C19.3847 105.019 20.1183 104.152 21.2222 104.231 22.2286 104.249 23.0289 105.079 23.0121 106.087L22.4281 139.136 54.5989 131.542C55.5841 131.312 56.562 131.915 56.7923 132.895 57.0252 133.876 56.4173 134.859 55.4367 135.089L18.7009 143.766Z" fill="#E94D33" transform="matrix(1 0 0 1.00258 870 360.06)"/><path d="M32.0478 140.564C31.6442 140.564 31.2407 140.43 30.9034 140.16L19.6291 131.072C18.8457 130.441 18.7221 129.291 19.3537 128.508 19.9878 127.722 21.1366 127.606 21.9176 128.233L33.1922 137.32C33.9757 137.952 34.0992 139.101 33.4675 139.884 33.1067 140.331 32.5796 140.564 32.0478 140.564Z" fill="#E94D33" transform="matrix(1 0 0 1.00258 870 360.06)"/><path d="M143.469 159.057 20.5646 159.057C19.558 159.057 18.7414 158.24 18.7414 157.234 18.7414 156.227 19.558 155.411 20.5646 155.411L143.47 155.411C144.476 155.411 145.293 156.227 145.293 157.234 145.292 158.24 144.476 159.057 143.469 159.057Z" fill="#BA3B21" transform="matrix(1 0 0 1.00258 870 360.06)"/></g></g></g></g></svg>